
<svg width="533px" height="569px" viewBox="0 0 533 569" version="1.1" xmlns="http://www.w3.org/2000/svg" xmlns:xlink="http://www.w3.org/1999/xlink">
    <defs>
        <filter x="-5.0%" y="-4.7%" width="110.1%" height="109.2%" filterUnits="objectBoundingBox" id="filter-1">
            <feOffset dx="0" dy="0" in="SourceAlpha" result="shadowOffsetOuter1"></feOffset>
            <feGaussianBlur stdDeviation="3.5" in="shadowOffsetOuter1" result="shadowBlurOuter1"></feGaussianBlur>
            <feColorMatrix values="0 0 0 0 0   0 0 0 0 0   0 0 0 0 0  0 0 0 0.66649683 0" type="matrix" in="shadowBlurOuter1" result="shadowMatrixOuter1"></feColorMatrix>
            <feMerge>
                <feMergeNode in="shadowMatrixOuter1"></feMergeNode>
                <feMergeNode in="SourceGraphic"></feMergeNode>
            </feMerge>
        </filter>
        <path d="M495.217269,186.256256 L503.264327,182.457377 L505.944695,186.769625 L501.104567,194.092573 L498.723317,201.074828 L493.742321,194.535286 L495.217269,186.256256 Z M174.843816,3.61631637 L177.826547,2.21713817 L185.113236,0 L192.393435,2.05632738 L193.709812,4.36892135 L196.446983,10.9683458 L195.450621,14.0151075 L193.423147,16.4122967 L186.26041,17.4754232 L182.79439,11.6615132 L180.132375,8.21683925 L175.576533,6.21305224 L174.843816,3.61631637 Z M0.114349068,165.479607 L1.69150005,157.087616 L4.12397579,155.444047 L5.36130704,154.607485 L9.58332773,148.357686 L11.0937247,143.010077 L14.3697007,137.323129 L19.8289659,132.602005 L26.1165264,130.12368 L29.0444793,127.342441 L35.0721211,127.102228 L37.0353717,123.659449 L41.7665105,121.681185 L45.1371703,122.186744 L46.3139495,117.88195 L49.9963051,115.298887 L50.1467596,105.473473 L50.3039851,95.2032479 L50.6535219,74.7031314 L50.8115219,65.4301253 L51.0958366,45.5983379 L58.1839404,45.5141804 L60.0596088,41.9304967 L63.3587268,37.6716374 L66.8801289,37.376193 L70.884884,40.2511736 L73.7814897,40.761364 L78.1144994,43.6364459 L84.2449909,42.7887505 L89.7135353,42.8419988 L104.007931,37.6832475 L109.8382,35.0301565 L111.711253,35.0427506 L114.997508,35.0637538 L123.116799,31.2978289 L127.28066,30.3103751 L131.043085,26.9324167 L135.7841,25.7573199 L139.465073,22.2280106 L143.049434,24.8429607 L146.079656,21.8636069 L149.593862,20.7492515 L153.899483,17.9651353 L157.96285,15.3009542 L157.574756,8.60504217 L162.880013,6.28547766 L168.68394,10.9251781 L172.477942,13.7328143 L177.454942,18.9776738 L173.10459,27.3928142 L168.050301,34.2007357 L166.438676,37.2384383 L168.743179,42.0093872 L163.646135,46.884685 L162.221231,51.7486924 L160.339406,54.6825697 L162.828993,55.2742555 L165.032526,55.7972244 L170.694798,51.8835593 L173.494468,50.8282436 L176.717411,48.2955993 L178.1762,42.8540772 L184.240529,48.3864864 L192.261937,55.5025188 L193.650809,55.3370218 L197.140395,54.9200833 L202.749851,58.2158323 L204.339526,57.6618087 L206.894232,61.4827831 L211.410064,59.1315761 L215.221446,63.1778414 L221.042694,65.3682476 L225.765591,74.7321196 L228.954163,84.6037714 L244.721547,88.815397 L268.707569,95.1534593 L313.92866,106.849359 L322.304906,111.649851 L327.185326,114.440293 L337.28485,120.19951 L343.20587,119.385392 L347.926021,120.794049 L348.267051,120.895697 L350.101488,123.725594 L353.787214,123.475017 L355.298852,120.531837 L360.825283,119.71542 L370.59561,124.331733 L373.006867,122.84691 L378.947686,126.508861 L384.155309,125.931142 L389.850764,127.646129 L394.988651,130.373562 L395.115611,130.440894 L398.70636,135.860156 L393.84541,142.401819 L396.372995,145.036573 L400.439027,146.556265 L401.15139,146.822241 L405.461117,145.15832 L407.972676,148.805764 L415.226185,149.659927 L419.225955,153.33569 L421.620393,155.533736 L423.734318,158.978141 L420.195334,161.556959 L424.271248,166.643637 L423.610223,170.737888 L422.406236,176.742479 L422.481284,182.859966 L419.130645,186.411467 L418.548849,192.496645 L418.151357,197.271526 L423.40043,197.026645 L427.521993,196.717008 L431.082955,193.174295 L435.261413,194.819198 L434.640343,201.06552 L431.259788,209.636037 L428.92514,215.441446 L433.021581,220.830248 L437.122999,225.935279 L442.019114,227.081131 L439.257943,233.137122 L439.164773,241.261081 L433.629404,241.768483 L428.133263,243.322968 L423.948257,244.503722 L421.513457,248.112044 L422.138085,254.081795 L420.832098,256.053949 L416.802657,260.831103 L413.93717,268.376197 L410.538089,272.754243 L409.513518,277.847471 L409.184891,279.479623 L409.674121,285.979326 L406.230263,290.456091 L409.363597,294.329246 L414.605487,295.295899 L418.221617,289.888719 L420.785005,285.722275 L428.388558,281.796586 L429.496682,280.043135 L430.528065,278.410312 L431.400023,277.20348 L432.830759,275.222314 L432.609036,271.505166 L438.571015,262.469652 L443.804252,255.971709 L448.002557,255.147868 L449.280487,253.654669 L454.969195,251.479596 L459.20384,245.576609 L463.615408,235.995719 L469.292131,227.708536 L471.117687,217.423756 L476.365728,216.525741 L480.652916,211.985151 L481.497402,206.337721 L485.58494,201.90999 L488.937167,201.007595 L492.252694,201.88646 L492.489294,209.406719 L487.230172,214.428774 L487.355121,220.601134 L486.174145,227.269978 L480.120553,235.456825 L476.32599,243.280396 L475.119775,250.721881 L469.514686,257.219314 L466.193358,264.707582 L461.879078,276.277211 L459.879004,281.628636 L456.261027,287.111623 L452.454691,302.205339 L449.260009,318.182242 L449.112652,318.917492 L451.379122,326.152079 L452.808085,331.955627 L450.273721,338.138378 L445.224617,341.656429 L440.826189,347.747012 L437.592199,361.680314 L435.371801,370.545756 L434.814156,372.768982 L435.892278,380.276016 L438.300309,385.331338 L437.80698,390.649732 L438.155112,395.807983 L431.455121,409.931762 L431.460035,412.322039 L431.472171,418.31437 L427.671026,427.044906 L423.97493,440.654356 L423.797506,453.854188 L423.791645,454.44804 L423.71327,462.356188 L426.56417,469.604941 L424.547104,475.47377 L429.411454,483.875229 L430.432426,494.279457 L431.103324,495.188006 L431.675816,495.963103 L436.620134,502.650048 L435.367434,512.736856 L434.030192,516.665905 L433.030055,519.601818 L433.41096,527.331933 L434.872544,537.71547 L426.393543,537.884622 L400.176784,538.35257 L398.66644,538.376993 L391.037164,538.634554 L373.462884,539.201009 L356.041392,539.794559 L356.041194,539.794565 L350.031538,539.871706 L335.781262,540.037151 L331.244575,540.084664 L326.86767,540.128143 L298.788883,540.208201 L295.691677,540.211189 L287.709296,540.213538 L257.765986,540.22832 L250.037435,540.214517 L249.991976,540.214614 L224.241834,540.229355 L206.578628,540.424987 L205.654187,540.434186 L187.759617,540.361472 L185.133678,532.235214 L182.671991,526.290495 L178.949589,524.018702 L169.504606,521.738617 L165.646583,520.609769 L161.777483,519.475571 L155.216446,515.211618 L150.586619,508.530951 L148.163887,497.913496 L144.782149,493.211998 L143.281913,484.615691 L142.976397,483.218348 L141.640187,477.101455 L141.628357,472.143458 L141.612903,465.651708 L145.158538,460.915984 L149.185979,455.255433 L151.730394,451.430757 L147.496408,444.308516 L143.413255,441.776501 L138.908565,437.136326 L139.599175,433.634723 L138.637683,431.67567 L136.792718,427.913732 L138.055649,422.002545 L136.780019,414.33404 L135.069378,410.094937 L133.352933,402.191609 L134.761165,395.15901 L135.889794,389.514456 L132.186798,380.683735 L131.903576,380.007508 L126.270073,372.303653 L120.672619,364.291143 L119.238523,362.235287 L109.159653,359.477391 L107.965427,359.149666 L101.65349,354.677388 L95.6592333,346.923632 L87.3580571,342.643166 L84.237009,338.68728 L81.0352617,334.624083 L79.1436109,324.250027 L75.1831039,318.971262 L65.0098232,313.802913 L62.7774706,312.666264 L52.5643357,308.79313 L51.4886923,307.729803 L47.683184,303.96461 L45.8217911,297.686091 L45.5823639,297.532618 L41.8538679,295.141015 L38.6673097,295.171235 L26.052116,292.665916 L20.3262719,288.386676 L13.8755589,279.165943 L10.9731156,276.08204 L5.96075509,270.748612 L4.89488169,269.613205 L8.17217354,259.447206 L8.31029807,258.599961 L8.31921698,258.545247 L9.85556142,249.111282 L9.10266916,239.481195 L5.76438768,234.315775 L11.0927276,228.711972 L10.8377981,227.48933 L9.0627806,218.965757 L9.16592135,217.196317 L9.68364118,208.307098 L10.8427435,207.007618 L15.0412977,202.295963 L18.5401228,195.270645 L19.6023815,190.317889 L16.3426288,186.183798 L13.0271931,179.787807 L10.695729,175.965179 L7.00179637,175.260471 L0.40975777,173.880053 L0,166.087481 L0.114349068,165.479607 Z" id="path-2"></path>
        <filter x="-3.3%" y="-3.1%" width="106.6%" height="106.1%" filterUnits="objectBoundingBox" id="filter-3">
            <feMorphology radius="1" operator="dilate" in="SourceAlpha" result="shadowSpreadOuter1"></feMorphology>
            <feOffset dx="0" dy="0" in="shadowSpreadOuter1" result="shadowOffsetOuter1"></feOffset>
            <feGaussianBlur stdDeviation="4.5" in="shadowOffsetOuter1" result="shadowBlurOuter1"></feGaussianBlur>
            <feColorMatrix values="0 0 0 0 0   0 0 0 0 0   0 0 0 0 0  0 0 0 0.296082428 0" type="matrix" in="shadowBlurOuter1"></feColorMatrix>
        </filter>
    </defs>
    <g id="Page-1" stroke="none" stroke-width="1" fill="none" fill-rule="evenodd">
        <g id="wi" filter="url(#filter-1)" transform="translate(14.000000, 14.000000)">
            <g id="state0">
                <use fill="black" fill-opacity="1" filter="url(#filter-3)" xlink:href="#path-2"></use>
                <use fill="#2E2F30" fill-rule="evenodd" xlink:href="#path-2"></use>
            </g>
        </g>
    </g>
</svg>
